<svg xmlns="http://www.w3.org/2000/svg" shape-rendering="geometricPrecision" text-rendering="geometricPrecision" image-rendering="optimizeQuality" fill-rule="evenodd" clip-rule="evenodd" viewBox="0 0 512 512"><path fill-rule="nonzero" d="M255.994 0c70.68 0 134.701 28.664 181.021 74.985 46.32 46.32 74.985 110.33 74.985 181.02 0 70.68-28.665 134.69-74.985 181.01C390.695 483.335 326.674 512 255.994 512c-70.679 0-134.689-28.665-181.009-74.985C28.664 390.695 0 326.685 0 256.005c0-70.679 28.664-134.7 74.985-181.02C121.305 28.664 185.315 0 255.994 0zm48.975 170.625h27.46c5.197 0 9.447 4.283 9.447 9.459v151.832c0 5.175-4.283 9.458-9.447 9.458h-27.46c-5.175 0-9.458-4.261-9.458-9.458V180.084c0-5.198 4.249-9.459 9.458-9.459zm-38.346 98.073c9.458-8.443 9.202-15.95 0-24.493l-75.72-70.635c-10.317-6.458-21.069-2.666-20.779 10.797l.401 142.095c.881 14.588 9.213 18.593 21.504 11.845l74.594-69.609zM412.745 99.254C372.637 59.147 317.204 34.33 255.994 34.33c-61.21 0-116.632 24.817-156.74 64.924-40.107 40.108-64.924 95.541-64.924 156.751 0 61.21 24.817 116.632 64.924 156.74 40.108 40.108 95.53 64.924 156.74 64.924 61.21 0 116.643-24.816 156.751-64.924 40.108-40.108 64.924-95.53 64.924-156.74 0-61.221-24.816-116.643-64.924-156.751z"/></svg>