<svg xmlns="http://www.w3.org/2000/svg" shape-rendering="geometricPrecision" text-rendering="geometricPrecision" image-rendering="optimizeQuality" fill-rule="evenodd" clip-rule="evenodd" viewBox="0 0 512 512"><path fill-rule="nonzero" d="M256.006 0c-70.68 0-134.701 28.664-181.021 74.985C28.665 121.305 0 185.315 0 256.006c0 70.679 28.665 134.689 74.985 181.009C121.305 483.336 185.326 512 256.006 512c70.68 0 134.689-28.664 181.01-74.985C483.336 390.695 512 326.685 512 256.006c0-70.68-28.664-134.701-74.984-181.021C390.695 28.664 326.686 0 256.006 0zm-48.975 170.626h-27.46c-5.197 0-9.447 4.283-9.447 9.458v151.832c0 5.175 4.283 9.458 9.447 9.458h27.46c5.175 0 9.458-4.26 9.458-9.458V180.084c0-5.198-4.25-9.458-9.458-9.458zm38.345 98.072c-9.457-8.443-9.201-15.949 0-24.493l75.721-70.635c10.317-6.458 21.069-2.665 20.78 10.797l-.402 142.095c-.881 14.589-9.213 18.593-21.504 11.845l-74.595-69.609zM99.255 99.255c40.108-40.108 95.54-64.925 156.751-64.925 61.21 0 116.632 24.817 156.74 64.925 40.108 40.108 64.924 95.54 64.924 156.751 0 61.21-24.816 116.631-64.924 156.739-40.108 40.108-95.53 64.925-156.74 64.925-61.211 0-116.643-24.817-156.751-64.925-40.108-40.108-64.924-95.529-64.924-156.739 0-61.222 24.816-116.643 64.924-156.751z"/></svg>