<svg xmlns="http://www.w3.org/2000/svg" shape-rendering="geometricPrecision" text-rendering="geometricPrecision" image-rendering="optimizeQuality" fill-rule="evenodd" clip-rule="evenodd" viewBox="0 0 512 356.367"><path fill-rule="nonzero" d="M455.461 46.206c-3.112-6.45-.403-14.207 6.047-17.319 6.45-3.113 14.207-.404 17.319 6.046 21.177 43.937 32.755 95.528 33.162 146.757.384 49.224-9.53 98.255-31.139 140.045-3.279 6.366-11.105 8.869-17.472 5.589-6.366-3.279-8.868-11.106-5.589-17.472 19.637-37.976 28.643-82.791 28.291-127.959-.374-47.422-11.069-95.121-30.619-135.687zM253.768 178.181v152.041c0 7.565-3.043 13.935-7.721 18.537a26.495 26.495 0 01-18.54 7.608v-.047c-6.359-.004-12.809-2.277-18.009-7.289l-68.28-55.474H56.516c-15.511 0-29.642-6.348-39.879-16.579C6.373 266.726 0 252.602 0 237.084V133.693c0-15.521 6.373-29.642 16.637-39.894 10.237-10.23 24.368-16.578 39.879-16.578h83.925l68.527-69.366C214.291 2.437 220.955 0 227.507 0c3.421 0 6.828.683 9.98 1.968a26.568 26.568 0 018.56 5.637c4.67 4.601 7.721 10.96 7.721 18.536v152.04zm-24.492 152.041V26.141c0-.534-.142-.915-.356-1.126-.134-.131-.352-.261-.621-.37a2.089 2.089 0 00-.792-.153c-.388 0-.799.156-1.129.491l-71.545 72.419a12.224 12.224 0 01-9.326 4.311H56.516c-8.825 0-16.851 3.599-22.658 9.402-5.778 5.771-9.366 13.764-9.366 22.578v103.391c0 8.818 3.588 16.807 9.366 22.578 5.807 5.804 13.833 9.403 22.658 9.403h88.991v.04a12.15 12.15 0 017.703 2.734l71.944 58.452c.425.331.835.694 1.224 1.09.363.37.773.541 1.129.541v-.047c.28 0 .552-.055.792-.153.265-.105.487-.24.621-.374.214-.211.356-.592.356-1.126zm94.359-194.324c-2.27-6.788 1.39-14.138 8.178-16.408 6.788-2.27 14.138 1.391 16.408 8.179 4.467 13.262 6.621 33.85 6.261 53.429-.349 19.186-3.152 38.038-8.578 49.173-3.138 6.45-10.92 9.133-17.37 5.996-6.45-3.138-9.134-10.92-5.996-17.371 3.769-7.739 5.749-22.516 6.036-38.205.312-16.931-1.384-34.243-4.939-44.793zm67.037-48.494c-2.749-6.62.389-14.218 7.009-16.967 6.621-2.75 14.218.388 16.968 7.009 12.079 28.919 18.597 65.349 19.142 101.556.541 35.667-4.725 71.385-16.179 99.763-2.662 6.646-10.22 9.875-16.866 7.212-6.646-2.662-9.874-10.219-7.212-16.865 10.172-25.2 14.842-57.377 14.348-89.805-.497-32.939-6.355-65.918-17.21-91.903z"/></svg>